<?xml version="1.0" encoding="UTF-8"?>
<svg id="uuid-6b788f87-7632-4db6-8e77-791433ef9838" data-name="レイヤー 1" xmlns="http://www.w3.org/2000/svg" viewBox="0 0 387.72 45.54">
  <path d="M16.17,45.54c-2.17,0-4.21-.2-6.12-.61s-3.7-1.02-5.37-1.84-3.23-1.84-4.68-3.07l3.9-4.79c1.7,1.47,3.57,2.58,5.62,3.31s4.27,1.1,6.66,1.1c3.23,0,5.74-.6,7.52-1.81s2.67-2.9,2.67-5.06v-.03c0-1.7-.45-3-1.35-3.9s-2.08-1.57-3.54-2.01-3.06-.8-4.8-1.09c-1.68-.29-3.37-.62-5.08-1.01s-3.28-1-4.71-1.83-2.58-2.02-3.45-3.58-1.3-3.63-1.3-6.23v-.03c0-4.15,1.38-7.37,4.14-9.65S12.92,0,17.95,0c2.39,0,4.74.38,7.03,1.15s4.52,1.94,6.69,3.51l-3.56,4.97c-1.7-1.27-3.39-2.21-5.08-2.82s-3.38-.92-5.08-.92c-3.05,0-5.42.61-7.1,1.83s-2.53,2.94-2.53,5.17v.03c0,1.68.49,2.96,1.47,3.84s2.27,1.53,3.85,1.95,3.29.81,5.11,1.18c1.64.33,3.27.72,4.91,1.18s3.13,1.13,4.47,1.99,2.41,2.06,3.22,3.58,1.21,3.49,1.21,5.92v.06c0,4.11-1.43,7.29-4.3,9.54s-6.89,3.38-12.09,3.38Z" style="fill: #231815; stroke-width: 0px;"/>
  <path d="M104.25,6.41V.46h31.49v5.95h-31.49ZM116.87,45.08V4.11h6.26v40.97h-6.26Z" style="fill: #231815; stroke-width: 0px;"/>
  <path d="M141.65,45.08V.46h6.26v44.62h-6.26ZM144.87,27.77v-5.95h14.27c2.05,0,3.69-.71,4.93-2.12s1.86-3.26,1.86-5.55-.62-4.2-1.86-5.62-2.88-2.12-4.93-2.12h-14.27V.46h14.06c2.7,0,5.05.57,7.06,1.7s3.57,2.73,4.68,4.77,1.67,4.45,1.67,7.21-.56,5.14-1.67,7.18-2.68,3.63-4.68,4.76-4.36,1.69-7.06,1.69h-14.06Z" style="fill: #231815; stroke-width: 0px;"/>
  <polygon points="53.92 6.5 49.04 .37 88.76 .37 83.89 6.5 53.92 6.5" style="fill: #231815; stroke-width: 0px;"/>
  <path d="M68.9,29.92L92.48.46h5.86v44.62h-6.11V11.66h0l-21.16,27.22h-4.36l-21.16-27.22h0v33.42h-6.11V.46h5.86l23.58,29.46ZM92.24,45.08v-6.22h-46.67v6.22h46.67Z" style="fill: #231815; stroke-width: 0px;"/>
  <g>
    <path d="M185.85,45.08V.46h6.26v44.62h-6.26ZM190.08,45.08v-5.95h10.1c3.29,0,5.85-.85,7.66-2.56s2.72-4.12,2.72-7.23v-13.14c0-3.11-.91-5.52-2.72-7.23s-4.36-2.56-7.66-2.56h-10.1V.46h9.91c5.4,0,9.58,1.4,12.54,4.19s4.43,6.73,4.43,11.8v12.64c0,3.38-.66,6.26-1.99,8.64s-3.26,4.2-5.8,5.46-5.61,1.89-9.21,1.89h-9.88Z" style="fill: #231815; stroke-width: 0px;"/>
    <path d="M246.06,29.92L259.16.46h5.86v44.62h-6.11V11.66l.31,1.96-10.99,25.26h-4.36l-10.99-24.64.31-2.58v33.42h-6.11V.46h5.86l13.1,29.46Z" style="fill: #231815; stroke-width: 0px;"/>
    <path d="M271.78,45.08L288.23.46h5.34l16.45,44.62h-6.75l-12.37-36-12.37,36h-6.75ZM279.36,35.29v-5.95h23.48v5.95h-23.48Z" style="fill: #231815; stroke-width: 0px;"/>
    <path d="M316.77,45.08V.43h6.26v44.65h-6.26ZM319.5,26.21v-5.95h15.22c1.82,0,3.28-.63,4.39-1.9s1.66-2.95,1.66-5.03-.55-3.76-1.66-5.03-2.57-1.9-4.39-1.9h-15.22V.43h14.98c2.6,0,4.87.54,6.81,1.61s3.45,2.57,4.53,4.5,1.61,4.18,1.61,6.78-.54,4.83-1.63,6.77-2.59,3.44-4.53,4.51-4.2,1.61-6.8,1.61h-14.98ZM341.87,45.08l-10.22-20.25,6.23-1.41,11.42,21.67h-7.43Z" style="fill: #231815; stroke-width: 0px;"/>
    <path d="M372.35,45.54c-3.11,0-5.83-.69-8.16-2.07s-4.14-3.32-5.43-5.82-1.93-5.41-1.93-8.75v-12.25c0-3.36.64-6.28,1.93-8.78s3.1-4.43,5.43-5.82,5.05-2.07,8.16-2.07c2.58,0,4.94.55,7.07,1.66s3.93,2.65,5.37,4.63,2.42,4.31,2.93,6.97h-6.41c-.39-1.43-1.04-2.69-1.95-3.76s-1.98-1.91-3.21-2.5-2.5-.89-3.81-.89c-2.74,0-4.95.97-6.61,2.9s-2.5,4.49-2.5,7.66v12.25c0,3.17.83,5.72,2.5,7.64s3.87,2.88,6.61,2.88c1.94,0,3.77-.61,5.49-1.84s2.87-3,3.47-5.31h6.41c-.51,2.66-1.49,4.98-2.95,6.97s-3.24,3.53-5.37,4.63-4.48,1.66-7.06,1.66Z" style="fill: #231815; stroke-width: 0px;"/>
  </g>
</svg>